HIERARCHY
ROOT hip
{
  OFFSET 0 0 0
  CHANNELS 6 Xposition Yposition Zposition Zrotation Yrotation Xrotation
  JOINT abdomen
  {
    OFFSET 0 20.6881 -0.73152
    CHANNELS 3 Zrotation Xrotation Yrotation
    JOINT chest
    {
      OFFSET 0 11.7043 -0.48768
      CHANNELS 3 Zrotation Xrotation Yrotation
      JOINT neck
      {
        OFFSET 0 22.1894 -2.19456
        CHANNELS 3 Zrotation Xrotation Yrotation
        JOINT head
        {
          OFFSET -0.24384 7.07133 1.2192
          CHANNELS 3 Zrotation Xrotation Yrotation
          JOINT leftEye
          {
            OFFSET 4.14528 8.04674 8.04672
            CHANNELS 3 Zrotation Xrotation Yrotation
            End Site
            {
              OFFSET 1 0 0
            }
          }
          JOINT rightEye
          {
            OFFSET -3.6576 8.04674 8.04672
            CHANNELS 3 Zrotation Xrotation Yrotation
            End Site
            {
              OFFSET 1 0 0
            }
          }
        }
      }
      JOINT rCollar
      {
        OFFSET -2.68224 19.2634 -4.8768
        CHANNELS 3 Zrotation Xrotation Yrotation
        JOINT rShldr
        {
          OFFSET -8.77824 -1.95073 1.46304
          CHANNELS 3 Zrotation Xrotation Yrotation
          JOINT rForeArm
          {
            OFFSET -28.1742 -1.7115 0.48768
            CHANNELS 3 Zrotation Xrotation Yrotation
            JOINT rHand
            {
              OFFSET -22.5879 0.773209 7.07136
              CHANNELS 3 Zrotation Xrotation Yrotation
              JOINT rThumb1
              {
                OFFSET -1.2192 -0.487915 3.41376
                CHANNELS 3 Zrotation Xrotation Yrotation
                JOINT rThumb2
                {
                  OFFSET -3.37035 -0.52449 3.41376
                  CHANNELS 3 Zrotation Xrotation Yrotation
                  End Site
                  {
                    OFFSET -1.78271 -1.18214 1.43049
                  }
                }
              }
              JOINT rIndex1
              {
                OFFSET -7.75947 0.938293 5.60832
                CHANNELS 3 Zrotation Xrotation Yrotation
                JOINT rIndex2
                {
                  OFFSET -2.54057 -0.884171 1.56538
                  CHANNELS 3 Zrotation Xrotation Yrotation
                  End Site
                  {
                    OFFSET -1.62519 -0.234802 1.16502
                  }
                }
              }
              JOINT rMid1
              {
                OFFSET -8.24714 1.18213 3.41376
                CHANNELS 3 Zrotation Xrotation Yrotation
                JOINT rMid2
                {
                  OFFSET -3.10165 -0.590103 1.0647
                  CHANNELS 3 Zrotation Xrotation Yrotation
                  End Site
                  {
                    OFFSET -2.48547 -0.328903 0.83742
                  }
                }
              }
              JOINT rRing1
              {
                OFFSET -8.82822 0.546677 1.51678
                CHANNELS 3 Zrotation Xrotation Yrotation
                JOINT rRing2
                {
                  OFFSET -2.60934 -0.819778 -0.0198488
                  CHANNELS 3 Zrotation Xrotation Yrotation
                  End Site
                  {
                    OFFSET -2.33842 -0.294052 0.168128
                  }
                }
              }
              JOINT rPinky1
              {
                OFFSET -8.27202 -0.0477905 -0.4584
                CHANNELS 3 Zrotation Xrotation Yrotation
                JOINT rPinky2
                {
                  OFFSET -1.82734 -0.647385 -0.700984
                  CHANNELS 3 Zrotation Xrotation Yrotation
                  End Site
                  {
                    OFFSET -1.69225 -0.51767 -0.607171
                  }
                }
              }
            }
          }
        }
      }
      JOINT lCollar
      {
        OFFSET 2.68224 19.2634 -4.8768
        CHANNELS 3 Zrotation Xrotation Yrotation
        JOINT lShldr
        {
          OFFSET 8.77824 -1.95073 1.46304
          CHANNELS 3 Zrotation Xrotation Yrotation
          JOINT lForeArm
          {
            OFFSET 28.1742 -1.7115 0.48768
            CHANNELS 3 Zrotation Xrotation Yrotation
            JOINT lHand
            {
              OFFSET 22.5879 0.773209 7.07136
              CHANNELS 3 Zrotation Xrotation Yrotation
              JOINT lThumb1
              {
                OFFSET 1.2192 -0.487915 3.41376
                CHANNELS 3 Zrotation Xrotation Yrotation
                JOINT lThumb2
                {
                  OFFSET 3.37035 -0.52449 3.41376
                  CHANNELS 3 Zrotation Xrotation Yrotation
                  End Site
                  {
                    OFFSET 1.78271 -1.18214 1.43049
                  }
                }
              }
              JOINT lIndex1
              {
                OFFSET 7.75947 0.938293 5.60832
                CHANNELS 3 Zrotation Xrotation Yrotation
                JOINT lIndex2
                {
                  OFFSET 2.54057 -0.884171 1.56538
                  CHANNELS 3 Zrotation Xrotation Yrotation
                  End Site
                  {
                    OFFSET 1.62519 -0.234802 1.16502
                  }
                }
              }
              JOINT lMid1
              {
                OFFSET 8.24714 1.18213 3.41376
                CHANNELS 3 Zrotation Xrotation Yrotation
                JOINT lMid2
                {
                  OFFSET 3.10165 -0.590103 1.0647
                  CHANNELS 3 Zrotation Xrotation Yrotation
                  End Site
                  {
                    OFFSET 2.48547 -0.328903 0.83742
                  }
                }
              }
              JOINT lRing1
              {
                OFFSET 8.82822 0.546677 1.51678
                CHANNELS 3 Zrotation Xrotation Yrotation
                JOINT lRing2
                {
                  OFFSET 2.60934 -0.819778 -0.0198488
                  CHANNELS 3 Zrotation Xrotation Yrotation
                  End Site
                  {
                    OFFSET 2.33842 -0.294052 0.168128
                  }
                }
              }
              JOINT lPinky1
              {
                OFFSET 8.27202 -0.0477905 -0.4584
                CHANNELS 3 Zrotation Xrotation Yrotation
                JOINT lPinky2
                {
                  OFFSET 1.82734 -0.647385 -0.700984
                  CHANNELS 3 Zrotation Xrotation Yrotation
                  End Site
                  {
                    OFFSET 1.69225 -0.51767 -0.607171
                  }
                }
              }
            }
          }
        }
      }
    }
  }
  JOINT rButtock
  {
    OFFSET -8.77824 4.35084 1.2192
    CHANNELS 3 Zrotation Xrotation Yrotation
    JOINT rThigh
    {
      OFFSET 0 -1.70687 -2.19456
      CHANNELS 3 Zrotation Xrotation Yrotation
      JOINT rShin
      {
        OFFSET 0 -36.8199 0.73152
        CHANNELS 3 Zrotation Xrotation Yrotation
        JOINT rFoot
        {
          OFFSET 0.73152 -45.1104 -5.12064
          CHANNELS 3 Zrotation Xrotation Yrotation
          End Site
          {
            OFFSET -1.1221 -3.69964 12.103
          }
        }
      }
    }
  }
  JOINT lButtock
  {
    OFFSET 8.77824 4.35084 1.2192
    CHANNELS 3 Zrotation Xrotation Yrotation
    JOINT lThigh
    {
      OFFSET 0 -1.70687 -2.19456
      CHANNELS 3 Zrotation Xrotation Yrotation
      JOINT lShin
      {
        OFFSET 0 -36.8199 0.73152
        CHANNELS 3 Zrotation Xrotation Yrotation
        JOINT lFoot
        {
          OFFSET -0.73152 -45.1104 -5.12064
          CHANNELS 3 Zrotation Xrotation Yrotation
          End Site
          {
            OFFSET 1.1221 -3.69964 12.103
          }
        }
      }
    }
  }
}
MOTION
Frames:	4
Frame Time:	0.03333
-0.18231517126610913 34.07998701477649 -1.7767421247155886 0.42719975113868713 -17.108999252319336 8.061199188232422 -15.976201057434082 21.825700759887695 6.175220012664795 1.6325398683547974 -12.083099365234375 1.0904399156570435 -5.013250350952148 14.61569881439209 0.19795797765254974 13.293798446655273 -33.74829864501953 4.569869518280029 -0.0 0.0 -0.0 -0.0 0.0 -0.0 1.5266661632790113e-13 1.1449996224592585e-13 -1.0177774421860075e-13 63.22319793701172 24.626598358154297 4.551299571990967 -18.798097610473633 -11.57089900970459 35.83720016479492 -0.025041094049811363 4.519410133361816 0.6364779472351074 -2.478847793696559e-09 3.4236506962770363e-09 -1.2646584890418922e-09 -4.2938630429034674e-09 5.9229559035145485e-09 -2.1786290549385967e-09 -2.478847793696559e-09 3.423663352819517e-09 -1.2646584890418922e-09 7.7309088706970215 5.474880218505859 0.41731396317481995 -2.478847793696559e-09 3.4236506962770363e-09 -1.2646520497483493e-09 2.9055399894714355 0.9651829600334167 0.10290198773145676 -2.4788351371540784e-09 3.4236506962770363e-09 -1.2646584890418922e-09 10.27859878540039 0.73180091381073 0.025912299752235413 -2.478847793696559e-09 3.4236506962770363e-09 -1.2646520497483493e-09 2.2216696739196777 -0.7334870100021362 -0.2089199721813202 1.5266661632790113e-13 1.1449996224592585e-13 -1.0177774421860075e-13 -50.73799514770508 26.693498611450195 -31.306997299194336 16.734600067138672 -9.38849925994873 -31.237899780273438 0.07078791409730911 7.64031982421875 -1.080090045928955 1.3736178861023518e-10 -1.3146377320083502e-09 -4.708938239339489e-10 2.3670959636845623e-10 -2.28314189776313e-09 -8.189355304999424e-10 1.3734906267881541e-10 -1.3146377320083502e-09 -4.708938239339489e-10 -7.7309088706970215 5.474880218505859 -0.41731396317481995 1.3734906267881541e-10 -1.3146377320083502e-09 -4.709065359875808e-10 -2.9055399894714355 0.9651829600334167 -0.10290198773145676 1.3734906267881541e-10 -1.3146377320083502e-09 -4.709001522051892e-10 -10.27859878540039 0.73180091381073 -0.025912299752235413 1.3736178861023518e-10 -1.3146377320083502e-09 -4.709065359875808e-10 -2.2216696739196777 -0.7334870100021362 0.2089199721813202 -0.0 0.0 -0.0 15.242096900939941 -66.08989715576172 7.5407795906066895 -172.0709991455078 81.14160919189453 172.59698486328125 -4.0012898445129395 -7.721439838409424 -13.174599647521973 -0.0 0.0 -0.0 12.97299861907959 -50.76669692993164 19.43349838256836 4.95788049697876 80.95329284667969 -6.4498395919799805 14.249100685119629 -18.432701110839844 31.154499053955078
-0.41585275924334714 34.292269294180485 -3.451497785735251 -0.6447000503540039 -16.730098724365234 9.41089916229248 -15.302395820617676 21.501300811767578 6.262590408325195 1.43818998336792 -11.958499908447266 1.1028599739074707 -4.940260410308838 14.568299293518066 0.09953618794679642 13.662899017333984 -33.90690231323242 4.50521993637085 -0.0 0.0 -0.0 -0.0 0.0 -0.0 1.908332704098764e-13 5.0888872109300376e-14 -4.770831624721639e-13 62.846500396728516 25.206899642944336 6.027160167694092 -18.84929847717285 -11.628899574279785 35.9573974609375 -0.014761298894882202 3.5077900886535645 0.49359801411628723 5.4641926400256224e-11 -3.0278878362932637e-12 -1.3192431591591003e-09 8.99206403781605e-11 -4.223776276651714e-12 -2.2864496962426983e-09 5.4641926400256224e-11 -3.0151655911608843e-12 -1.3192431591591003e-09 7.7309088706970215 5.474880218505859 0.41731396317481995 5.4641926400256224e-11 -3.0278878362932637e-12 -1.319230391594317e-09 2.9055399894714355 0.9651829600334167 0.10290198773145676 5.4641926400256224e-11 -3.0278878362932637e-12 -1.319230391594317e-09 10.27859878540039 0.73180091381073 0.025912299752235413 5.462920393828341e-11 -3.0278878362932637e-12 -1.319230391594317e-09 2.2216696739196777 -0.7334870100021362 -0.2089199721813202 1.908332704098764e-13 5.0888872109300376e-14 -4.770831624721639e-13 -50.0099983215332 26.114198684692383 -32.769195556640625 16.23819923400879 -8.91077995300293 -30.17669677734375 0.10330300033092499 9.10531997680664 -1.2907099723815918 1.3747374350003838e-09 2.361701723074816e-09 4.481973681080831e-10 2.3777444457806496e-09 4.066097236687938e-09 7.659792800041032e-10 1.3747374350003838e-09 2.361701723074816e-09 4.4821010791729066e-10 -7.7309088706970215 5.474880218505859 -0.41731396317481995 1.374750202565167e-09 2.361701723074816e-09 4.481973681080831e-10 -2.9055399894714355 0.9651829600334167 -0.10290198773145676 1.3747374350003838e-09 2.361701723074816e-09 4.481973681080831e-10 -10.27859878540039 0.73180091381073 -0.025912299752235413 1.374750202565167e-09 2.361701723074816e-09 4.481910120812671e-10 -2.2216696739196777 -0.7334870100021362 0.2089199721813202 -0.0 0.0 -0.0 10.322298049926758 -61.115394592285156 3.5465400218963623 -173.802001953125 78.25370025634766 174.43698120117188 -4.251500129699707 -7.032480239868164 -15.584501266479492 -0.0 0.0 -0.0 17.103899002075195 -54.07569885253906 22.174901962280273 4.840359210968018 80.5444107055664 -6.113709449768066 12.803298950195312 -17.142702102661133 29.383298873901367
-0.6911016721516182 34.483924402291045 -5.012807739900704 -1.5939992666244507 -15.873498916625977 10.792099952697754 -14.397400856018066 21.05620002746582 6.321969985961914 1.3117899894714355 -11.839499473571777 1.1308599710464478 -4.904929161071777 14.469401359558105 -0.1344829946756363 14.036396980285645 -33.83110046386719 4.142360210418701 -0.0 0.0 -0.0 -0.0 0.0 -0.0 2.035554884372015e-13 -1.5266661632790113e-13 -5.534164706361144e-13 62.53949737548828 26.00619888305664 7.023339748382568 -19.04800033569336 -11.856199264526367 36.426597595214844 -0.0066377813927829266 2.4111900329589844 0.3390510082244873 3.7088574433852273e-09 -5.7925020335858335e-09 -5.350583309748913e-10 6.418409803643499e-09 -1.0020298368829117e-08 -9.394721667277395e-10 3.7088574433852273e-09 -5.7925020335858335e-09 -5.350583309748913e-10 7.7309088706970215 5.474880218505859 0.41731396317481995 3.7088574433852273e-09 -5.7925020335858335e-09 -5.350583309748913e-10 2.9055399894714355 0.9651829600334167 0.10290198773145676 3.7088574433852273e-09 -5.7925020335858335e-09 -5.350583309748913e-10 10.27859878540039 0.73180091381073 0.025912299752235413 3.7088574433852273e-09 -5.7925020335858335e-09 -5.350456189212593e-10 2.2216696739196777 -0.7334870100021362 -0.2089199721813202 2.035554884372015e-13 -1.5266661632790113e-13 -5.534164706361144e-13 -49.49759292602539 25.889297485351562 -34.334197998046875 15.74539852142334 -8.453929901123047 -29.134296417236328 0.12829197943210602 10.165899276733398 -1.4440199136734009 5.868250330109959e-10 3.6846088402597843e-09 1.0387818383250647e-09 1.0178028420071428e-09 6.3767320312990705e-09 1.7975094745992237e-09 5.868250330109959e-10 3.6846088402597843e-09 1.0388009341610882e-09 -7.7309088706970215 5.474880218505859 -0.41731396317481995 5.868250330109959e-10 3.6846341533447458e-09 1.0388009341610882e-09 -2.9055399894714355 0.9651829600334167 -0.10290198773145676 5.86799608903732e-10 3.6846088402597843e-09 1.038788166596305e-09 -10.27859878540039 0.73180091381073 -0.025912299752235413 5.868250330109959e-10 3.6846088402597843e-09 1.0387818383250647e-09 -2.2216696739196777 -0.7334870100021362 0.2089199721813202 -0.0 0.0 -0.0 5.244969367980957 -54.65520095825195 0.14035198092460632 -174.14599609375 77.64119720458984 174.91598510742188 -4.003239631652832 -6.358739852905273 -16.587398529052734 -0.0 0.0 -0.0 21.147199630737305 -57.14439392089844 24.265897750854492 4.6103291511535645 79.8353042602539 -5.611340045928955 10.588298797607422 -15.263699531555176 26.41399574279785
-0.9955141587945217 34.643320526951634 -6.4560883966703395 -2.187699556350708 -15.050698280334473 12.064199447631836 -13.75629997253418 20.221698760986328 6.635809898376465 1.2420896291732788 -11.636098861694336 1.2316298484802246 -4.874479293823242 14.37909984588623 -0.433491975069046 14.07699966430664 -33.75899887084961 3.5450196266174316 -0.0 0.0 -0.0 -0.0 0.0 -0.0 1.2722218027325094e-13 -2.544443605465019e-13 -4.770831624721639e-13 62.350196838378906 27.08380126953125 7.500978946685791 -19.465696334838867 -12.356398582458496 37.392601013183594 -0.003981721121817827 1.718959927558899 0.24167399108409882 5.178426132346203e-09 -8.026090903001659e-09 -2.62287608299161e-10 8.963362496672289e-09 -1.3884291050203501e-08 -4.701750100366553e-10 5.178426132346203e-09 -8.026090903001659e-09 -2.62287608299161e-10 7.7309088706970215 5.474880218505859 0.41731396317481995 5.178426132346203e-09 -8.026090903001659e-09 -2.62287608299161e-10 2.9055399894714355 0.9651829600334167 0.10290198773145676 5.178426132346203e-09 -8.026090903001659e-09 -2.62281252272345e-10 10.27859878540039 0.73180091381073 0.025912299752235413 5.178426132346203e-09 -8.026090903001659e-09 -2.62274896245529e-10 2.2216696739196777 -0.7334870100021362 -0.2089199721813202 1.2722218027325094e-13 -2.544443605465019e-13 -4.770831624721639e-13 -48.98969268798828 26.058101654052734 -35.931396484375 15.323698997497559 -8.073149681091309 -28.258899688720703 0.14341700077056885 10.717499732971191 -1.5243197679519653 7.147341746227553e-11 3.863483311050686e-09 1.2129426352203154e-09 1.279091832451229e-10 6.698273047334169e-09 2.104108665079707e-09 7.147341746227553e-11 3.863483311050686e-09 1.2129489634915558e-09 -7.7309088706970215 5.474880218505859 -0.41731396317481995 7.147341746227553e-11 3.8635086241356476e-09 1.212961731056339e-09 -2.9055399894714355 0.9651829600334167 -0.10290198773145676 7.147341746227553e-11 3.863483311050686e-09 1.2129489634915558e-09 -10.27859878540039 0.73180091381073 -0.025912299752235413 7.149886238622116e-11 3.863483311050686e-09 1.2129426352203154e-09 -2.2216696739196777 -0.7334870100021362 0.2089199721813202 -0.0 0.0 -0.0 1.1330699920654297 -47.665096282958984 -1.6585097312927246 -173.58998107910156 79.10199737548828 174.5399932861328 -3.7409093379974365 -5.329519748687744 -18.38530158996582 -0.0 0.0 -0.0 25.493600845336914 -59.80649948120117 27.200899124145508 4.324309825897217 78.99149322509766 -5.081669807434082 8.745779037475586 -13.539098739624023 23.744897842407227
